<?xml version="1.0" encoding="UTF-8"?>
<svg width="23px" height="21px" viewBox="0 0 23 21" version="1.1" xmlns="http://www.w3.org/2000/svg" xmlns:xlink="http://www.w3.org/1999/xlink">
    <title>Shape</title>
    <g id="Page-1" stroke="none" stroke-width="1" fill="none" fill-rule="evenodd">
        <g id="Blank-Gym" transform="translate(-4256, -451)" fill="#8AB2EA" fill-rule="nonzero">
            <g id="burger-solid" transform="translate(4256, 451)">
                <path d="M2.1140625,9 C1.359375,9 0.75,8.390625 0.75,7.6359375 C0.75,7.546875 0.759375,7.4625 0.778125,7.3734375 C1.0265625,6.3890625 2.94375,0 11.25,0 C19.55625,0 21.4734375,6.3890625 21.721875,7.3734375 C21.7453125,7.4625 21.75,7.546875 21.75,7.6359375 C21.75,8.390625 21.140625,9 20.3859375,9 L2.1140625,9 Z M6,4.5 C6,4.08578644 5.66421356,3.75 5.25,3.75 C4.83578644,3.75 4.5,4.08578644 4.5,4.5 C4.5,4.91421356 4.83578644,5.25 5.25,5.25 C5.66421356,5.25 6,4.91421356 6,4.5 Z M17.25,5.25 C17.6642136,5.25 18,4.91421356 18,4.5 C18,4.08578644 17.6642136,3.75 17.25,3.75 C16.8357864,3.75 16.5,4.08578644 16.5,4.5 C16.5,4.91421356 16.8357864,5.25 17.25,5.25 Z M12,3 C12,2.58578644 11.6642136,2.25 11.25,2.25 C10.8357864,2.25 10.5,2.58578644 10.5,3 C10.5,3.41421356 10.8357864,3.75 11.25,3.75 C11.6642136,3.75 12,3.41421356 12,3 Z M0,12.75 C0,11.5078125 1.0078125,10.5 2.25,10.5 L20.25,10.5 C21.4921875,10.5 22.5,11.5078125 22.5,12.75 C22.5,13.9921875 21.4921875,15 20.25,15 L2.25,15 C1.0078125,15 0,13.9921875 0,12.75 Z M0.75,17.25 C0.75,16.8375 1.0875,16.5 1.5,16.5 L21,16.5 C21.4125,16.5 21.75,16.8375 21.75,17.25 L21.75,18 C21.75,19.6546875 20.4046875,21 18.75,21 L3.75,21 C2.0953125,21 0.75,19.6546875 0.75,18 L0.75,17.25 Z" id="Shape"></path>
            </g>
        </g>
    </g>
</svg>